<mxfile host="app.diagrams.net" modified="2023-08-16T12:02:42.049Z" agent="Mozilla/5.0 (Windows NT 10.0; Win64; x64) AppleWebKit/537.36 (KHTML, like Gecko) Chrome/115.0.0.0 Safari/537.36" etag="ku9fk_cuvg3pGFaLvv-1" version="21.6.8" type="device">
  <diagram id="C5RBs43oDa-KdzZeNtuy" name="Page-1">
    <mxGraphModel dx="1050" dy="574" grid="1" gridSize="10" guides="1" tooltips="1" connect="1" arrows="1" fold="1" page="1" pageScale="1" pageWidth="827" pageHeight="1169" math="0" shadow="0">
      <root>
        <mxCell id="WIyWlLk6GJQsqaUBKTNV-0" />
        <mxCell id="WIyWlLk6GJQsqaUBKTNV-1" parent="WIyWlLk6GJQsqaUBKTNV-0" />
        <mxCell id="bxurBG6-usje9f_txLfc-49" value="TiposDeUsuario" style="shape=table;startSize=30;container=1;collapsible=1;childLayout=tableLayout;fixedRows=1;rowLines=0;fontStyle=1;align=center;resizeLast=1;html=1;" parent="WIyWlLk6GJQsqaUBKTNV-1" vertex="1">
          <mxGeometry x="380" y="352" width="180" height="128" as="geometry">
            <mxRectangle x="360" y="330" width="130" height="30" as="alternateBounds" />
          </mxGeometry>
        </mxCell>
        <mxCell id="bxurBG6-usje9f_txLfc-50" value="" style="shape=tableRow;horizontal=0;startSize=0;swimlaneHead=0;swimlaneBody=0;fillColor=none;collapsible=0;dropTarget=0;points=[[0,0.5],[1,0.5]];portConstraint=eastwest;top=0;left=0;right=0;bottom=1;" parent="bxurBG6-usje9f_txLfc-49" vertex="1">
          <mxGeometry y="30" width="180" height="30" as="geometry" />
        </mxCell>
        <mxCell id="bxurBG6-usje9f_txLfc-51" value="PK" style="shape=partialRectangle;connectable=0;fillColor=none;top=0;left=0;bottom=0;right=0;fontStyle=1;overflow=hidden;whiteSpace=wrap;html=1;" parent="bxurBG6-usje9f_txLfc-50" vertex="1">
          <mxGeometry width="30" height="30" as="geometry">
            <mxRectangle width="30" height="30" as="alternateBounds" />
          </mxGeometry>
        </mxCell>
        <mxCell id="bxurBG6-usje9f_txLfc-52" value="IdPerfil" style="shape=partialRectangle;connectable=0;fillColor=none;top=0;left=0;bottom=0;right=0;align=left;spacingLeft=6;fontStyle=5;overflow=hidden;whiteSpace=wrap;html=1;" parent="bxurBG6-usje9f_txLfc-50" vertex="1">
          <mxGeometry x="30" width="150" height="30" as="geometry">
            <mxRectangle width="150" height="30" as="alternateBounds" />
          </mxGeometry>
        </mxCell>
        <mxCell id="bxurBG6-usje9f_txLfc-53" value="" style="shape=tableRow;horizontal=0;startSize=0;swimlaneHead=0;swimlaneBody=0;fillColor=none;collapsible=0;dropTarget=0;points=[[0,0.5],[1,0.5]];portConstraint=eastwest;top=0;left=0;right=0;bottom=0;" parent="bxurBG6-usje9f_txLfc-49" vertex="1">
          <mxGeometry y="60" width="180" height="68" as="geometry" />
        </mxCell>
        <mxCell id="bxurBG6-usje9f_txLfc-54" value="" style="shape=partialRectangle;connectable=0;fillColor=none;top=0;left=0;bottom=0;right=0;editable=1;overflow=hidden;whiteSpace=wrap;html=1;" parent="bxurBG6-usje9f_txLfc-53" vertex="1">
          <mxGeometry width="30" height="68" as="geometry">
            <mxRectangle width="30" height="68" as="alternateBounds" />
          </mxGeometry>
        </mxCell>
        <mxCell id="bxurBG6-usje9f_txLfc-55" value="NomePerfil&lt;br&gt;&lt;br&gt;DescricaoPerfil" style="shape=partialRectangle;connectable=0;fillColor=none;top=0;left=0;bottom=0;right=0;align=left;spacingLeft=6;overflow=hidden;whiteSpace=wrap;html=1;" parent="bxurBG6-usje9f_txLfc-53" vertex="1">
          <mxGeometry x="30" width="150" height="68" as="geometry">
            <mxRectangle width="150" height="68" as="alternateBounds" />
          </mxGeometry>
        </mxCell>
        <mxCell id="bxurBG6-usje9f_txLfc-62" value="Pacientes" style="shape=table;startSize=30;container=1;collapsible=1;childLayout=tableLayout;fixedRows=1;rowLines=0;fontStyle=1;align=center;resizeLast=1;html=1;" parent="WIyWlLk6GJQsqaUBKTNV-1" vertex="1">
          <mxGeometry x="890" y="660" width="180" height="355" as="geometry" />
        </mxCell>
        <mxCell id="bxurBG6-usje9f_txLfc-63" value="" style="shape=tableRow;horizontal=0;startSize=0;swimlaneHead=0;swimlaneBody=0;fillColor=none;collapsible=0;dropTarget=0;points=[[0,0.5],[1,0.5]];portConstraint=eastwest;top=0;left=0;right=0;bottom=1;" parent="bxurBG6-usje9f_txLfc-62" vertex="1">
          <mxGeometry y="30" width="180" height="95" as="geometry" />
        </mxCell>
        <mxCell id="bxurBG6-usje9f_txLfc-64" value="PK&lt;br&gt;&lt;br&gt;FK1&lt;br&gt;&lt;br&gt;FK2" style="shape=partialRectangle;connectable=0;fillColor=none;top=0;left=0;bottom=0;right=0;fontStyle=1;overflow=hidden;whiteSpace=wrap;html=1;" parent="bxurBG6-usje9f_txLfc-63" vertex="1">
          <mxGeometry width="40" height="95" as="geometry">
            <mxRectangle width="40" height="95" as="alternateBounds" />
          </mxGeometry>
        </mxCell>
        <mxCell id="bxurBG6-usje9f_txLfc-65" value="IdPaciente&lt;br&gt;&lt;br&gt;IdGenero&lt;br&gt;&lt;br&gt;IdUsuario" style="shape=partialRectangle;connectable=0;fillColor=none;top=0;left=0;bottom=0;right=0;align=left;spacingLeft=6;fontStyle=5;overflow=hidden;whiteSpace=wrap;html=1;" parent="bxurBG6-usje9f_txLfc-63" vertex="1">
          <mxGeometry x="40" width="140" height="95" as="geometry">
            <mxRectangle width="140" height="95" as="alternateBounds" />
          </mxGeometry>
        </mxCell>
        <mxCell id="bxurBG6-usje9f_txLfc-66" value="" style="shape=tableRow;horizontal=0;startSize=0;swimlaneHead=0;swimlaneBody=0;fillColor=none;collapsible=0;dropTarget=0;points=[[0,0.5],[1,0.5]];portConstraint=eastwest;top=0;left=0;right=0;bottom=0;" parent="bxurBG6-usje9f_txLfc-62" vertex="1">
          <mxGeometry y="125" width="180" height="230" as="geometry" />
        </mxCell>
        <mxCell id="bxurBG6-usje9f_txLfc-67" value="" style="shape=partialRectangle;connectable=0;fillColor=none;top=0;left=0;bottom=0;right=0;editable=1;overflow=hidden;whiteSpace=wrap;html=1;" parent="bxurBG6-usje9f_txLfc-66" vertex="1">
          <mxGeometry width="40" height="230" as="geometry">
            <mxRectangle width="40" height="230" as="alternateBounds" />
          </mxGeometry>
        </mxCell>
        <mxCell id="bxurBG6-usje9f_txLfc-68" value="Nome&lt;br&gt;&lt;br&gt;DataNascimento&lt;br&gt;&lt;br&gt;Email&lt;br&gt;&lt;br&gt;Endereco&lt;br&gt;&lt;br&gt;Cidade&lt;br&gt;&lt;br&gt;Estado&lt;br&gt;&lt;br&gt;CEP" style="shape=partialRectangle;connectable=0;fillColor=none;top=0;left=0;bottom=0;right=0;align=left;spacingLeft=6;overflow=hidden;whiteSpace=wrap;html=1;" parent="bxurBG6-usje9f_txLfc-66" vertex="1">
          <mxGeometry x="40" width="140" height="230" as="geometry">
            <mxRectangle width="140" height="230" as="alternateBounds" />
          </mxGeometry>
        </mxCell>
        <mxCell id="bxurBG6-usje9f_txLfc-69" value="Comentarios" style="shape=table;startSize=30;container=1;collapsible=1;childLayout=tableLayout;fixedRows=1;rowLines=0;fontStyle=1;align=center;resizeLast=1;html=1;" parent="WIyWlLk6GJQsqaUBKTNV-1" vertex="1">
          <mxGeometry x="860" y="1060" width="180" height="250" as="geometry" />
        </mxCell>
        <mxCell id="bxurBG6-usje9f_txLfc-70" value="" style="shape=tableRow;horizontal=0;startSize=0;swimlaneHead=0;swimlaneBody=0;fillColor=none;collapsible=0;dropTarget=0;points=[[0,0.5],[1,0.5]];portConstraint=eastwest;top=0;left=0;right=0;bottom=1;" parent="bxurBG6-usje9f_txLfc-69" vertex="1">
          <mxGeometry y="30" width="180" height="80" as="geometry" />
        </mxCell>
        <mxCell id="bxurBG6-usje9f_txLfc-71" value="PK&lt;br&gt;&lt;br&gt;FK" style="shape=partialRectangle;connectable=0;fillColor=none;top=0;left=0;bottom=0;right=0;fontStyle=1;overflow=hidden;whiteSpace=wrap;html=1;" parent="bxurBG6-usje9f_txLfc-70" vertex="1">
          <mxGeometry width="30" height="80" as="geometry">
            <mxRectangle width="30" height="80" as="alternateBounds" />
          </mxGeometry>
        </mxCell>
        <mxCell id="bxurBG6-usje9f_txLfc-72" value="IdComentario&lt;br&gt;&lt;br&gt;IdPaciente&amp;nbsp;" style="shape=partialRectangle;connectable=0;fillColor=none;top=0;left=0;bottom=0;right=0;align=left;spacingLeft=6;fontStyle=5;overflow=hidden;whiteSpace=wrap;html=1;" parent="bxurBG6-usje9f_txLfc-70" vertex="1">
          <mxGeometry x="30" width="150" height="80" as="geometry">
            <mxRectangle width="150" height="80" as="alternateBounds" />
          </mxGeometry>
        </mxCell>
        <mxCell id="bxurBG6-usje9f_txLfc-73" value="" style="shape=tableRow;horizontal=0;startSize=0;swimlaneHead=0;swimlaneBody=0;fillColor=none;collapsible=0;dropTarget=0;points=[[0,0.5],[1,0.5]];portConstraint=eastwest;top=0;left=0;right=0;bottom=0;" parent="bxurBG6-usje9f_txLfc-69" vertex="1">
          <mxGeometry y="110" width="180" height="30" as="geometry" />
        </mxCell>
        <mxCell id="bxurBG6-usje9f_txLfc-74" value="" style="shape=partialRectangle;connectable=0;fillColor=none;top=0;left=0;bottom=0;right=0;editable=1;overflow=hidden;whiteSpace=wrap;html=1;" parent="bxurBG6-usje9f_txLfc-73" vertex="1">
          <mxGeometry width="30" height="30" as="geometry">
            <mxRectangle width="30" height="30" as="alternateBounds" />
          </mxGeometry>
        </mxCell>
        <mxCell id="bxurBG6-usje9f_txLfc-75" value="DataHoraComentario" style="shape=partialRectangle;connectable=0;fillColor=none;top=0;left=0;bottom=0;right=0;align=left;spacingLeft=6;overflow=hidden;whiteSpace=wrap;html=1;" parent="bxurBG6-usje9f_txLfc-73" vertex="1">
          <mxGeometry x="30" width="150" height="30" as="geometry">
            <mxRectangle width="150" height="30" as="alternateBounds" />
          </mxGeometry>
        </mxCell>
        <mxCell id="bxurBG6-usje9f_txLfc-76" style="shape=tableRow;horizontal=0;startSize=0;swimlaneHead=0;swimlaneBody=0;fillColor=none;collapsible=0;dropTarget=0;points=[[0,0.5],[1,0.5]];portConstraint=eastwest;top=0;left=0;right=0;bottom=0;" parent="bxurBG6-usje9f_txLfc-69" vertex="1">
          <mxGeometry y="140" width="180" height="30" as="geometry" />
        </mxCell>
        <mxCell id="bxurBG6-usje9f_txLfc-77" style="shape=partialRectangle;connectable=0;fillColor=none;top=0;left=0;bottom=0;right=0;editable=1;overflow=hidden;whiteSpace=wrap;html=1;" parent="bxurBG6-usje9f_txLfc-76" vertex="1">
          <mxGeometry width="30" height="30" as="geometry">
            <mxRectangle width="30" height="30" as="alternateBounds" />
          </mxGeometry>
        </mxCell>
        <mxCell id="bxurBG6-usje9f_txLfc-78" value="TextoComentario" style="shape=partialRectangle;connectable=0;fillColor=none;top=0;left=0;bottom=0;right=0;align=left;spacingLeft=6;overflow=hidden;whiteSpace=wrap;html=1;" parent="bxurBG6-usje9f_txLfc-76" vertex="1">
          <mxGeometry x="30" width="150" height="30" as="geometry">
            <mxRectangle width="150" height="30" as="alternateBounds" />
          </mxGeometry>
        </mxCell>
        <mxCell id="bxurBG6-usje9f_txLfc-79" style="shape=tableRow;horizontal=0;startSize=0;swimlaneHead=0;swimlaneBody=0;fillColor=none;collapsible=0;dropTarget=0;points=[[0,0.5],[1,0.5]];portConstraint=eastwest;top=0;left=0;right=0;bottom=0;" parent="bxurBG6-usje9f_txLfc-69" vertex="1">
          <mxGeometry y="170" width="180" height="80" as="geometry" />
        </mxCell>
        <mxCell id="bxurBG6-usje9f_txLfc-80" style="shape=partialRectangle;connectable=0;fillColor=none;top=0;left=0;bottom=0;right=0;editable=1;overflow=hidden;whiteSpace=wrap;html=1;" parent="bxurBG6-usje9f_txLfc-79" vertex="1">
          <mxGeometry width="30" height="80" as="geometry">
            <mxRectangle width="30" height="80" as="alternateBounds" />
          </mxGeometry>
        </mxCell>
        <mxCell id="bxurBG6-usje9f_txLfc-81" value="Avaliacao&lt;br&gt;&lt;br&gt;Respondido&lt;br&gt;&lt;br&gt;DataResposta" style="shape=partialRectangle;connectable=0;fillColor=none;top=0;left=0;bottom=0;right=0;align=left;spacingLeft=6;overflow=hidden;whiteSpace=wrap;html=1;" parent="bxurBG6-usje9f_txLfc-79" vertex="1">
          <mxGeometry x="30" width="150" height="80" as="geometry">
            <mxRectangle width="150" height="80" as="alternateBounds" />
          </mxGeometry>
        </mxCell>
        <mxCell id="bxurBG6-usje9f_txLfc-82" value="Usuarios" style="shape=table;startSize=30;container=1;collapsible=1;childLayout=tableLayout;fixedRows=1;rowLines=0;fontStyle=1;align=center;resizeLast=1;html=1;whiteSpace=wrap;" parent="WIyWlLk6GJQsqaUBKTNV-1" vertex="1">
          <mxGeometry x="660" y="352" width="180" height="208" as="geometry" />
        </mxCell>
        <mxCell id="bxurBG6-usje9f_txLfc-83" value="" style="shape=tableRow;horizontal=0;startSize=0;swimlaneHead=0;swimlaneBody=0;fillColor=none;collapsible=0;dropTarget=0;points=[[0,0.5],[1,0.5]];portConstraint=eastwest;top=0;left=0;right=0;bottom=0;html=1;" parent="bxurBG6-usje9f_txLfc-82" vertex="1">
          <mxGeometry y="30" width="180" height="30" as="geometry" />
        </mxCell>
        <mxCell id="bxurBG6-usje9f_txLfc-84" value="PK" style="shape=partialRectangle;connectable=0;fillColor=none;top=0;left=0;bottom=0;right=0;fontStyle=1;overflow=hidden;html=1;whiteSpace=wrap;" parent="bxurBG6-usje9f_txLfc-83" vertex="1">
          <mxGeometry width="60" height="30" as="geometry">
            <mxRectangle width="60" height="30" as="alternateBounds" />
          </mxGeometry>
        </mxCell>
        <mxCell id="bxurBG6-usje9f_txLfc-85" value="IdUsuario" style="shape=partialRectangle;connectable=0;fillColor=none;top=0;left=0;bottom=0;right=0;align=left;spacingLeft=6;fontStyle=5;overflow=hidden;html=1;whiteSpace=wrap;" parent="bxurBG6-usje9f_txLfc-83" vertex="1">
          <mxGeometry x="60" width="120" height="30" as="geometry">
            <mxRectangle width="120" height="30" as="alternateBounds" />
          </mxGeometry>
        </mxCell>
        <mxCell id="bxurBG6-usje9f_txLfc-86" value="" style="shape=tableRow;horizontal=0;startSize=0;swimlaneHead=0;swimlaneBody=0;fillColor=none;collapsible=0;dropTarget=0;points=[[0,0.5],[1,0.5]];portConstraint=eastwest;top=0;left=0;right=0;bottom=1;html=1;" parent="bxurBG6-usje9f_txLfc-82" vertex="1">
          <mxGeometry y="60" width="180" height="30" as="geometry" />
        </mxCell>
        <mxCell id="bxurBG6-usje9f_txLfc-87" value="FK" style="shape=partialRectangle;connectable=0;fillColor=none;top=0;left=0;bottom=0;right=0;fontStyle=1;overflow=hidden;html=1;whiteSpace=wrap;" parent="bxurBG6-usje9f_txLfc-86" vertex="1">
          <mxGeometry width="60" height="30" as="geometry">
            <mxRectangle width="60" height="30" as="alternateBounds" />
          </mxGeometry>
        </mxCell>
        <mxCell id="bxurBG6-usje9f_txLfc-88" value="IdPerfil" style="shape=partialRectangle;connectable=0;fillColor=none;top=0;left=0;bottom=0;right=0;align=left;spacingLeft=6;fontStyle=5;overflow=hidden;html=1;whiteSpace=wrap;" parent="bxurBG6-usje9f_txLfc-86" vertex="1">
          <mxGeometry x="60" width="120" height="30" as="geometry">
            <mxRectangle width="120" height="30" as="alternateBounds" />
          </mxGeometry>
        </mxCell>
        <mxCell id="bxurBG6-usje9f_txLfc-89" value="" style="shape=tableRow;horizontal=0;startSize=0;swimlaneHead=0;swimlaneBody=0;fillColor=none;collapsible=0;dropTarget=0;points=[[0,0.5],[1,0.5]];portConstraint=eastwest;top=0;left=0;right=0;bottom=0;html=1;" parent="bxurBG6-usje9f_txLfc-82" vertex="1">
          <mxGeometry y="90" width="180" height="30" as="geometry" />
        </mxCell>
        <mxCell id="bxurBG6-usje9f_txLfc-90" value="" style="shape=partialRectangle;connectable=0;fillColor=none;top=0;left=0;bottom=0;right=0;editable=1;overflow=hidden;html=1;whiteSpace=wrap;" parent="bxurBG6-usje9f_txLfc-89" vertex="1">
          <mxGeometry width="60" height="30" as="geometry">
            <mxRectangle width="60" height="30" as="alternateBounds" />
          </mxGeometry>
        </mxCell>
        <mxCell id="bxurBG6-usje9f_txLfc-91" value="Nome&lt;span style=&quot;white-space: pre;&quot;&gt;&#x9;&lt;/span&gt;" style="shape=partialRectangle;connectable=0;fillColor=none;top=0;left=0;bottom=0;right=0;align=left;spacingLeft=6;overflow=hidden;html=1;whiteSpace=wrap;" parent="bxurBG6-usje9f_txLfc-89" vertex="1">
          <mxGeometry x="60" width="120" height="30" as="geometry">
            <mxRectangle width="120" height="30" as="alternateBounds" />
          </mxGeometry>
        </mxCell>
        <mxCell id="bxurBG6-usje9f_txLfc-92" value="" style="shape=tableRow;horizontal=0;startSize=0;swimlaneHead=0;swimlaneBody=0;fillColor=none;collapsible=0;dropTarget=0;points=[[0,0.5],[1,0.5]];portConstraint=eastwest;top=0;left=0;right=0;bottom=0;html=1;" parent="bxurBG6-usje9f_txLfc-82" vertex="1">
          <mxGeometry y="120" width="180" height="30" as="geometry" />
        </mxCell>
        <mxCell id="bxurBG6-usje9f_txLfc-93" value="" style="shape=partialRectangle;connectable=0;fillColor=none;top=0;left=0;bottom=0;right=0;editable=1;overflow=hidden;html=1;whiteSpace=wrap;" parent="bxurBG6-usje9f_txLfc-92" vertex="1">
          <mxGeometry width="60" height="30" as="geometry">
            <mxRectangle width="60" height="30" as="alternateBounds" />
          </mxGeometry>
        </mxCell>
        <mxCell id="bxurBG6-usje9f_txLfc-94" value="Email" style="shape=partialRectangle;connectable=0;fillColor=none;top=0;left=0;bottom=0;right=0;align=left;spacingLeft=6;overflow=hidden;html=1;whiteSpace=wrap;" parent="bxurBG6-usje9f_txLfc-92" vertex="1">
          <mxGeometry x="60" width="120" height="30" as="geometry">
            <mxRectangle width="120" height="30" as="alternateBounds" />
          </mxGeometry>
        </mxCell>
        <mxCell id="bxurBG6-usje9f_txLfc-96" style="shape=tableRow;horizontal=0;startSize=0;swimlaneHead=0;swimlaneBody=0;fillColor=none;collapsible=0;dropTarget=0;points=[[0,0.5],[1,0.5]];portConstraint=eastwest;top=0;left=0;right=0;bottom=0;html=1;" parent="bxurBG6-usje9f_txLfc-82" vertex="1">
          <mxGeometry y="150" width="180" height="58" as="geometry" />
        </mxCell>
        <mxCell id="bxurBG6-usje9f_txLfc-97" style="shape=partialRectangle;connectable=0;fillColor=none;top=0;left=0;bottom=0;right=0;editable=1;overflow=hidden;html=1;whiteSpace=wrap;" parent="bxurBG6-usje9f_txLfc-96" vertex="1">
          <mxGeometry width="60" height="58" as="geometry">
            <mxRectangle width="60" height="58" as="alternateBounds" />
          </mxGeometry>
        </mxCell>
        <mxCell id="bxurBG6-usje9f_txLfc-98" value="Senha&lt;br&gt;&lt;br&gt;DataRegistro" style="shape=partialRectangle;connectable=0;fillColor=none;top=0;left=0;bottom=0;right=0;align=left;spacingLeft=6;overflow=hidden;html=1;whiteSpace=wrap;" parent="bxurBG6-usje9f_txLfc-96" vertex="1">
          <mxGeometry x="60" width="120" height="58" as="geometry">
            <mxRectangle width="120" height="58" as="alternateBounds" />
          </mxGeometry>
        </mxCell>
        <mxCell id="bxurBG6-usje9f_txLfc-99" value="" style="edgeStyle=entityRelationEdgeStyle;fontSize=12;html=1;endArrow=ERoneToMany;rounded=0;exitX=1;exitY=0.5;exitDx=0;exitDy=0;entryX=0;entryY=0.5;entryDx=0;entryDy=0;" parent="WIyWlLk6GJQsqaUBKTNV-1" source="bxurBG6-usje9f_txLfc-50" target="bxurBG6-usje9f_txLfc-86" edge="1">
          <mxGeometry width="100" height="100" relative="1" as="geometry">
            <mxPoint x="540" y="560" as="sourcePoint" />
            <mxPoint x="640" y="460" as="targetPoint" />
          </mxGeometry>
        </mxCell>
        <mxCell id="bxurBG6-usje9f_txLfc-100" value="Médicos" style="shape=table;startSize=30;container=1;collapsible=1;childLayout=tableLayout;fixedRows=1;rowLines=0;fontStyle=1;align=center;resizeLast=1;html=1;whiteSpace=wrap;" parent="WIyWlLk6GJQsqaUBKTNV-1" vertex="1">
          <mxGeometry x="940" y="352" width="180" height="264" as="geometry" />
        </mxCell>
        <mxCell id="bxurBG6-usje9f_txLfc-122" style="shape=tableRow;horizontal=0;startSize=0;swimlaneHead=0;swimlaneBody=0;fillColor=none;collapsible=0;dropTarget=0;points=[[0,0.5],[1,0.5]];portConstraint=eastwest;top=0;left=0;right=0;bottom=0;html=1;" parent="bxurBG6-usje9f_txLfc-100" vertex="1">
          <mxGeometry y="30" width="180" height="30" as="geometry" />
        </mxCell>
        <mxCell id="bxurBG6-usje9f_txLfc-123" value="PK" style="shape=partialRectangle;connectable=0;fillColor=none;top=0;left=0;bottom=0;right=0;fontStyle=1;overflow=hidden;html=1;whiteSpace=wrap;" parent="bxurBG6-usje9f_txLfc-122" vertex="1">
          <mxGeometry width="60" height="30" as="geometry">
            <mxRectangle width="60" height="30" as="alternateBounds" />
          </mxGeometry>
        </mxCell>
        <mxCell id="bxurBG6-usje9f_txLfc-124" value="IdMedico" style="shape=partialRectangle;connectable=0;fillColor=none;top=0;left=0;bottom=0;right=0;align=left;spacingLeft=6;fontStyle=5;overflow=hidden;html=1;whiteSpace=wrap;" parent="bxurBG6-usje9f_txLfc-122" vertex="1">
          <mxGeometry x="60" width="120" height="30" as="geometry">
            <mxRectangle width="120" height="30" as="alternateBounds" />
          </mxGeometry>
        </mxCell>
        <mxCell id="bxurBG6-usje9f_txLfc-101" value="" style="shape=tableRow;horizontal=0;startSize=0;swimlaneHead=0;swimlaneBody=0;fillColor=none;collapsible=0;dropTarget=0;points=[[0,0.5],[1,0.5]];portConstraint=eastwest;top=0;left=0;right=0;bottom=0;html=1;" parent="bxurBG6-usje9f_txLfc-100" vertex="1">
          <mxGeometry y="60" width="180" height="48" as="geometry" />
        </mxCell>
        <mxCell id="bxurBG6-usje9f_txLfc-102" value="FK1&lt;br&gt;&lt;br&gt;FK2" style="shape=partialRectangle;connectable=0;fillColor=none;top=0;left=0;bottom=0;right=0;fontStyle=1;overflow=hidden;html=1;whiteSpace=wrap;" parent="bxurBG6-usje9f_txLfc-101" vertex="1">
          <mxGeometry width="60" height="48" as="geometry">
            <mxRectangle width="60" height="48" as="alternateBounds" />
          </mxGeometry>
        </mxCell>
        <mxCell id="bxurBG6-usje9f_txLfc-103" value="IdClinica&lt;br&gt;&lt;br&gt;IdUsuario" style="shape=partialRectangle;connectable=0;fillColor=none;top=0;left=0;bottom=0;right=0;align=left;spacingLeft=6;fontStyle=5;overflow=hidden;html=1;whiteSpace=wrap;" parent="bxurBG6-usje9f_txLfc-101" vertex="1">
          <mxGeometry x="60" width="120" height="48" as="geometry">
            <mxRectangle width="120" height="48" as="alternateBounds" />
          </mxGeometry>
        </mxCell>
        <mxCell id="bxurBG6-usje9f_txLfc-104" value="" style="shape=tableRow;horizontal=0;startSize=0;swimlaneHead=0;swimlaneBody=0;fillColor=none;collapsible=0;dropTarget=0;points=[[0,0.5],[1,0.5]];portConstraint=eastwest;top=0;left=0;right=0;bottom=1;html=1;" parent="bxurBG6-usje9f_txLfc-100" vertex="1">
          <mxGeometry y="108" width="180" height="68" as="geometry" />
        </mxCell>
        <mxCell id="bxurBG6-usje9f_txLfc-105" value="FK3" style="shape=partialRectangle;connectable=0;fillColor=none;top=0;left=0;bottom=0;right=0;fontStyle=1;overflow=hidden;html=1;whiteSpace=wrap;" parent="bxurBG6-usje9f_txLfc-104" vertex="1">
          <mxGeometry width="60" height="68" as="geometry">
            <mxRectangle width="60" height="68" as="alternateBounds" />
          </mxGeometry>
        </mxCell>
        <mxCell id="bxurBG6-usje9f_txLfc-106" value="&amp;nbsp;IdEspecialidade" style="shape=partialRectangle;connectable=0;fillColor=none;top=0;left=0;bottom=0;right=0;align=left;spacingLeft=6;fontStyle=5;overflow=hidden;html=1;whiteSpace=wrap;" parent="bxurBG6-usje9f_txLfc-104" vertex="1">
          <mxGeometry x="60" width="120" height="68" as="geometry">
            <mxRectangle width="120" height="68" as="alternateBounds" />
          </mxGeometry>
        </mxCell>
        <mxCell id="bxurBG6-usje9f_txLfc-125" style="shape=tableRow;horizontal=0;startSize=0;swimlaneHead=0;swimlaneBody=0;fillColor=none;collapsible=0;dropTarget=0;points=[[0,0.5],[1,0.5]];portConstraint=eastwest;top=0;left=0;right=0;bottom=1;html=1;" parent="bxurBG6-usje9f_txLfc-100" vertex="1">
          <mxGeometry y="176" width="180" height="88" as="geometry" />
        </mxCell>
        <mxCell id="bxurBG6-usje9f_txLfc-126" style="shape=partialRectangle;connectable=0;fillColor=none;top=0;left=0;bottom=0;right=0;fontStyle=1;overflow=hidden;html=1;whiteSpace=wrap;" parent="bxurBG6-usje9f_txLfc-125" vertex="1">
          <mxGeometry width="60" height="88" as="geometry">
            <mxRectangle width="60" height="88" as="alternateBounds" />
          </mxGeometry>
        </mxCell>
        <mxCell id="bxurBG6-usje9f_txLfc-127" value="&lt;span style=&quot;font-weight: normal;&quot;&gt;Nome&lt;br&gt;&lt;br&gt;CRM&lt;br&gt;&lt;br&gt;Telefone&lt;/span&gt;" style="shape=partialRectangle;connectable=0;fillColor=none;top=0;left=0;bottom=0;right=0;align=left;spacingLeft=6;fontStyle=5;overflow=hidden;html=1;whiteSpace=wrap;" parent="bxurBG6-usje9f_txLfc-125" vertex="1">
          <mxGeometry x="60" width="120" height="88" as="geometry">
            <mxRectangle width="120" height="88" as="alternateBounds" />
          </mxGeometry>
        </mxCell>
        <mxCell id="bxurBG6-usje9f_txLfc-207" value="Genero" style="shape=table;startSize=30;container=1;collapsible=1;childLayout=tableLayout;fixedRows=1;rowLines=0;fontStyle=1;align=center;resizeLast=1;html=1;whiteSpace=wrap;" parent="WIyWlLk6GJQsqaUBKTNV-1" vertex="1">
          <mxGeometry x="1180" y="970" width="180" height="110" as="geometry" />
        </mxCell>
        <mxCell id="bxurBG6-usje9f_txLfc-208" value="" style="shape=tableRow;horizontal=0;startSize=0;swimlaneHead=0;swimlaneBody=0;fillColor=none;collapsible=0;dropTarget=0;points=[[0,0.5],[1,0.5]];portConstraint=eastwest;top=0;left=0;right=0;bottom=0;html=1;" parent="bxurBG6-usje9f_txLfc-207" vertex="1">
          <mxGeometry y="30" width="180" height="30" as="geometry" />
        </mxCell>
        <mxCell id="bxurBG6-usje9f_txLfc-209" value="PK" style="shape=partialRectangle;connectable=0;fillColor=none;top=0;left=0;bottom=0;right=0;fontStyle=1;overflow=hidden;html=1;whiteSpace=wrap;" parent="bxurBG6-usje9f_txLfc-208" vertex="1">
          <mxGeometry width="60" height="30" as="geometry">
            <mxRectangle width="60" height="30" as="alternateBounds" />
          </mxGeometry>
        </mxCell>
        <mxCell id="bxurBG6-usje9f_txLfc-210" value="IDGenero" style="shape=partialRectangle;connectable=0;fillColor=none;top=0;left=0;bottom=0;right=0;align=left;spacingLeft=6;fontStyle=5;overflow=hidden;html=1;whiteSpace=wrap;" parent="bxurBG6-usje9f_txLfc-208" vertex="1">
          <mxGeometry x="60" width="120" height="30" as="geometry">
            <mxRectangle width="120" height="30" as="alternateBounds" />
          </mxGeometry>
        </mxCell>
        <mxCell id="bxurBG6-usje9f_txLfc-211" value="" style="shape=tableRow;horizontal=0;startSize=0;swimlaneHead=0;swimlaneBody=0;fillColor=none;collapsible=0;dropTarget=0;points=[[0,0.5],[1,0.5]];portConstraint=eastwest;top=0;left=0;right=0;bottom=1;html=1;" parent="bxurBG6-usje9f_txLfc-207" vertex="1">
          <mxGeometry y="60" width="180" height="20" as="geometry" />
        </mxCell>
        <mxCell id="bxurBG6-usje9f_txLfc-212" value="" style="shape=partialRectangle;connectable=0;fillColor=none;top=0;left=0;bottom=0;right=0;fontStyle=1;overflow=hidden;html=1;whiteSpace=wrap;" parent="bxurBG6-usje9f_txLfc-211" vertex="1">
          <mxGeometry width="60" height="20" as="geometry">
            <mxRectangle width="60" height="20" as="alternateBounds" />
          </mxGeometry>
        </mxCell>
        <mxCell id="bxurBG6-usje9f_txLfc-213" value="" style="shape=partialRectangle;connectable=0;fillColor=none;top=0;left=0;bottom=0;right=0;align=left;spacingLeft=6;fontStyle=5;overflow=hidden;html=1;whiteSpace=wrap;" parent="bxurBG6-usje9f_txLfc-211" vertex="1">
          <mxGeometry x="60" width="120" height="20" as="geometry">
            <mxRectangle width="120" height="20" as="alternateBounds" />
          </mxGeometry>
        </mxCell>
        <mxCell id="bxurBG6-usje9f_txLfc-214" value="" style="shape=tableRow;horizontal=0;startSize=0;swimlaneHead=0;swimlaneBody=0;fillColor=none;collapsible=0;dropTarget=0;points=[[0,0.5],[1,0.5]];portConstraint=eastwest;top=0;left=0;right=0;bottom=0;html=1;" parent="bxurBG6-usje9f_txLfc-207" vertex="1">
          <mxGeometry y="80" width="180" height="30" as="geometry" />
        </mxCell>
        <mxCell id="bxurBG6-usje9f_txLfc-215" value="" style="shape=partialRectangle;connectable=0;fillColor=none;top=0;left=0;bottom=0;right=0;editable=1;overflow=hidden;html=1;whiteSpace=wrap;" parent="bxurBG6-usje9f_txLfc-214" vertex="1">
          <mxGeometry width="60" height="30" as="geometry">
            <mxRectangle width="60" height="30" as="alternateBounds" />
          </mxGeometry>
        </mxCell>
        <mxCell id="bxurBG6-usje9f_txLfc-216" value="IDGenero" style="shape=partialRectangle;connectable=0;fillColor=none;top=0;left=0;bottom=0;right=0;align=left;spacingLeft=6;overflow=hidden;html=1;whiteSpace=wrap;" parent="bxurBG6-usje9f_txLfc-214" vertex="1">
          <mxGeometry x="60" width="120" height="30" as="geometry">
            <mxRectangle width="120" height="30" as="alternateBounds" />
          </mxGeometry>
        </mxCell>
        <mxCell id="VOCdtpEEA6YlJk27Ot3l-1" value="Clínica" style="shape=table;startSize=30;container=1;collapsible=1;childLayout=tableLayout;fixedRows=1;rowLines=0;fontStyle=1;align=center;resizeLast=1;html=1;whiteSpace=wrap;" parent="WIyWlLk6GJQsqaUBKTNV-1" vertex="1">
          <mxGeometry x="550" y="635" width="220" height="320" as="geometry" />
        </mxCell>
        <mxCell id="VOCdtpEEA6YlJk27Ot3l-2" style="shape=tableRow;horizontal=0;startSize=0;swimlaneHead=0;swimlaneBody=0;fillColor=none;collapsible=0;dropTarget=0;points=[[0,0.5],[1,0.5]];portConstraint=eastwest;top=0;left=0;right=0;bottom=0;html=1;" parent="VOCdtpEEA6YlJk27Ot3l-1" vertex="1">
          <mxGeometry y="30" width="220" height="30" as="geometry" />
        </mxCell>
        <mxCell id="VOCdtpEEA6YlJk27Ot3l-3" value="PK" style="shape=partialRectangle;connectable=0;fillColor=none;top=0;left=0;bottom=0;right=0;fontStyle=1;overflow=hidden;html=1;whiteSpace=wrap;" parent="VOCdtpEEA6YlJk27Ot3l-2" vertex="1">
          <mxGeometry width="60" height="30" as="geometry">
            <mxRectangle width="60" height="30" as="alternateBounds" />
          </mxGeometry>
        </mxCell>
        <mxCell id="VOCdtpEEA6YlJk27Ot3l-4" value="IdClinica" style="shape=partialRectangle;connectable=0;fillColor=none;top=0;left=0;bottom=0;right=0;align=left;spacingLeft=6;fontStyle=5;overflow=hidden;html=1;whiteSpace=wrap;" parent="VOCdtpEEA6YlJk27Ot3l-2" vertex="1">
          <mxGeometry x="60" width="160" height="30" as="geometry">
            <mxRectangle width="160" height="30" as="alternateBounds" />
          </mxGeometry>
        </mxCell>
        <mxCell id="VOCdtpEEA6YlJk27Ot3l-5" value="" style="shape=tableRow;horizontal=0;startSize=0;swimlaneHead=0;swimlaneBody=0;fillColor=none;collapsible=0;dropTarget=0;points=[[0,0.5],[1,0.5]];portConstraint=eastwest;top=0;left=0;right=0;bottom=0;html=1;" parent="VOCdtpEEA6YlJk27Ot3l-1" vertex="1">
          <mxGeometry y="60" width="220" height="30" as="geometry" />
        </mxCell>
        <mxCell id="VOCdtpEEA6YlJk27Ot3l-6" value="" style="shape=partialRectangle;connectable=0;fillColor=none;top=0;left=0;bottom=0;right=0;fontStyle=1;overflow=hidden;html=1;whiteSpace=wrap;" parent="VOCdtpEEA6YlJk27Ot3l-5" vertex="1">
          <mxGeometry width="60" height="30" as="geometry">
            <mxRectangle width="60" height="30" as="alternateBounds" />
          </mxGeometry>
        </mxCell>
        <mxCell id="VOCdtpEEA6YlJk27Ot3l-7" value="" style="shape=partialRectangle;connectable=0;fillColor=none;top=0;left=0;bottom=0;right=0;align=left;spacingLeft=6;fontStyle=5;overflow=hidden;html=1;whiteSpace=wrap;" parent="VOCdtpEEA6YlJk27Ot3l-5" vertex="1">
          <mxGeometry x="60" width="160" height="30" as="geometry">
            <mxRectangle width="160" height="30" as="alternateBounds" />
          </mxGeometry>
        </mxCell>
        <mxCell id="VOCdtpEEA6YlJk27Ot3l-8" value="" style="shape=tableRow;horizontal=0;startSize=0;swimlaneHead=0;swimlaneBody=0;fillColor=none;collapsible=0;dropTarget=0;points=[[0,0.5],[1,0.5]];portConstraint=eastwest;top=0;left=0;right=0;bottom=1;html=1;" parent="VOCdtpEEA6YlJk27Ot3l-1" vertex="1">
          <mxGeometry y="90" width="220" height="20" as="geometry" />
        </mxCell>
        <mxCell id="VOCdtpEEA6YlJk27Ot3l-9" value="" style="shape=partialRectangle;connectable=0;fillColor=none;top=0;left=0;bottom=0;right=0;fontStyle=1;overflow=hidden;html=1;whiteSpace=wrap;" parent="VOCdtpEEA6YlJk27Ot3l-8" vertex="1">
          <mxGeometry width="60" height="20" as="geometry">
            <mxRectangle width="60" height="20" as="alternateBounds" />
          </mxGeometry>
        </mxCell>
        <mxCell id="VOCdtpEEA6YlJk27Ot3l-10" value="" style="shape=partialRectangle;connectable=0;fillColor=none;top=0;left=0;bottom=0;right=0;align=left;spacingLeft=6;fontStyle=5;overflow=hidden;html=1;whiteSpace=wrap;" parent="VOCdtpEEA6YlJk27Ot3l-8" vertex="1">
          <mxGeometry x="60" width="160" height="20" as="geometry">
            <mxRectangle width="160" height="20" as="alternateBounds" />
          </mxGeometry>
        </mxCell>
        <mxCell id="VOCdtpEEA6YlJk27Ot3l-11" style="shape=tableRow;horizontal=0;startSize=0;swimlaneHead=0;swimlaneBody=0;fillColor=none;collapsible=0;dropTarget=0;points=[[0,0.5],[1,0.5]];portConstraint=eastwest;top=0;left=0;right=0;bottom=1;html=1;" parent="VOCdtpEEA6YlJk27Ot3l-1" vertex="1">
          <mxGeometry y="110" width="220" height="210" as="geometry" />
        </mxCell>
        <mxCell id="VOCdtpEEA6YlJk27Ot3l-12" style="shape=partialRectangle;connectable=0;fillColor=none;top=0;left=0;bottom=0;right=0;fontStyle=1;overflow=hidden;html=1;whiteSpace=wrap;" parent="VOCdtpEEA6YlJk27Ot3l-11" vertex="1">
          <mxGeometry width="60" height="210" as="geometry">
            <mxRectangle width="60" height="210" as="alternateBounds" />
          </mxGeometry>
        </mxCell>
        <mxCell id="VOCdtpEEA6YlJk27Ot3l-13" value="&lt;span style=&quot;font-weight: normal;&quot;&gt;Endereco&lt;br&gt;&lt;br&gt;HorarioFuncionamento&lt;br&gt;&lt;br&gt;CNPJ&lt;br&gt;&lt;br&gt;NomeFantasia&lt;br&gt;&lt;br&gt;RazaoSocial&lt;br&gt;&lt;br&gt;TelefoneClinica&lt;br&gt;&lt;br&gt;EmailClinica&lt;/span&gt;" style="shape=partialRectangle;connectable=0;fillColor=none;top=0;left=0;bottom=0;right=0;align=left;spacingLeft=6;fontStyle=5;overflow=hidden;html=1;whiteSpace=wrap;" parent="VOCdtpEEA6YlJk27Ot3l-11" vertex="1">
          <mxGeometry x="60" width="160" height="210" as="geometry">
            <mxRectangle width="160" height="210" as="alternateBounds" />
          </mxGeometry>
        </mxCell>
        <mxCell id="UPvEOHVc4T_nk_kfZoQp-4" value="" style="edgeStyle=entityRelationEdgeStyle;fontSize=12;html=1;endArrow=ERoneToMany;rounded=0;exitX=1;exitY=0.5;exitDx=0;exitDy=0;entryX=0;entryY=0.5;entryDx=0;entryDy=0;" parent="WIyWlLk6GJQsqaUBKTNV-1" source="VOCdtpEEA6YlJk27Ot3l-2" target="bxurBG6-usje9f_txLfc-101" edge="1">
          <mxGeometry width="100" height="100" relative="1" as="geometry">
            <mxPoint x="890" y="680" as="sourcePoint" />
            <mxPoint x="990" y="580" as="targetPoint" />
          </mxGeometry>
        </mxCell>
        <mxCell id="UPvEOHVc4T_nk_kfZoQp-5" value="" style="edgeStyle=entityRelationEdgeStyle;fontSize=12;html=1;endArrow=ERoneToMany;rounded=0;entryX=1;entryY=0.5;entryDx=0;entryDy=0;exitX=0.003;exitY=0.3;exitDx=0;exitDy=0;exitPerimeter=0;" parent="WIyWlLk6GJQsqaUBKTNV-1" source="bxurBG6-usje9f_txLfc-208" target="bxurBG6-usje9f_txLfc-63" edge="1">
          <mxGeometry width="100" height="100" relative="1" as="geometry">
            <mxPoint x="1170" y="846" as="sourcePoint" />
            <mxPoint x="1230" y="804" as="targetPoint" />
          </mxGeometry>
        </mxCell>
        <mxCell id="UPvEOHVc4T_nk_kfZoQp-6" value="Especialidade" style="shape=table;startSize=30;container=1;collapsible=1;childLayout=tableLayout;fixedRows=1;rowLines=0;fontStyle=1;align=center;resizeLast=1;html=1;whiteSpace=wrap;" parent="WIyWlLk6GJQsqaUBKTNV-1" vertex="1">
          <mxGeometry x="1200" y="220" width="220" height="158" as="geometry" />
        </mxCell>
        <mxCell id="UPvEOHVc4T_nk_kfZoQp-7" style="shape=tableRow;horizontal=0;startSize=0;swimlaneHead=0;swimlaneBody=0;fillColor=none;collapsible=0;dropTarget=0;points=[[0,0.5],[1,0.5]];portConstraint=eastwest;top=0;left=0;right=0;bottom=0;html=1;" parent="UPvEOHVc4T_nk_kfZoQp-6" vertex="1">
          <mxGeometry y="30" width="220" height="30" as="geometry" />
        </mxCell>
        <mxCell id="UPvEOHVc4T_nk_kfZoQp-8" value="PK" style="shape=partialRectangle;connectable=0;fillColor=none;top=0;left=0;bottom=0;right=0;fontStyle=1;overflow=hidden;html=1;whiteSpace=wrap;" parent="UPvEOHVc4T_nk_kfZoQp-7" vertex="1">
          <mxGeometry width="60" height="30" as="geometry">
            <mxRectangle width="60" height="30" as="alternateBounds" />
          </mxGeometry>
        </mxCell>
        <mxCell id="UPvEOHVc4T_nk_kfZoQp-9" value="IdEspecialidade" style="shape=partialRectangle;connectable=0;fillColor=none;top=0;left=0;bottom=0;right=0;align=left;spacingLeft=6;fontStyle=5;overflow=hidden;html=1;whiteSpace=wrap;" parent="UPvEOHVc4T_nk_kfZoQp-7" vertex="1">
          <mxGeometry x="60" width="160" height="30" as="geometry">
            <mxRectangle width="160" height="30" as="alternateBounds" />
          </mxGeometry>
        </mxCell>
        <mxCell id="UPvEOHVc4T_nk_kfZoQp-13" value="" style="shape=tableRow;horizontal=0;startSize=0;swimlaneHead=0;swimlaneBody=0;fillColor=none;collapsible=0;dropTarget=0;points=[[0,0.5],[1,0.5]];portConstraint=eastwest;top=0;left=0;right=0;bottom=1;html=1;" parent="UPvEOHVc4T_nk_kfZoQp-6" vertex="1">
          <mxGeometry y="60" width="220" height="20" as="geometry" />
        </mxCell>
        <mxCell id="UPvEOHVc4T_nk_kfZoQp-14" value="" style="shape=partialRectangle;connectable=0;fillColor=none;top=0;left=0;bottom=0;right=0;fontStyle=1;overflow=hidden;html=1;whiteSpace=wrap;" parent="UPvEOHVc4T_nk_kfZoQp-13" vertex="1">
          <mxGeometry width="60" height="20" as="geometry">
            <mxRectangle width="60" height="20" as="alternateBounds" />
          </mxGeometry>
        </mxCell>
        <mxCell id="UPvEOHVc4T_nk_kfZoQp-15" value="" style="shape=partialRectangle;connectable=0;fillColor=none;top=0;left=0;bottom=0;right=0;align=left;spacingLeft=6;fontStyle=5;overflow=hidden;html=1;whiteSpace=wrap;" parent="UPvEOHVc4T_nk_kfZoQp-13" vertex="1">
          <mxGeometry x="60" width="160" height="20" as="geometry">
            <mxRectangle width="160" height="20" as="alternateBounds" />
          </mxGeometry>
        </mxCell>
        <mxCell id="UPvEOHVc4T_nk_kfZoQp-16" style="shape=tableRow;horizontal=0;startSize=0;swimlaneHead=0;swimlaneBody=0;fillColor=none;collapsible=0;dropTarget=0;points=[[0,0.5],[1,0.5]];portConstraint=eastwest;top=0;left=0;right=0;bottom=1;html=1;" parent="UPvEOHVc4T_nk_kfZoQp-6" vertex="1">
          <mxGeometry y="80" width="220" height="78" as="geometry" />
        </mxCell>
        <mxCell id="UPvEOHVc4T_nk_kfZoQp-17" style="shape=partialRectangle;connectable=0;fillColor=none;top=0;left=0;bottom=0;right=0;fontStyle=1;overflow=hidden;html=1;whiteSpace=wrap;" parent="UPvEOHVc4T_nk_kfZoQp-16" vertex="1">
          <mxGeometry width="60" height="78" as="geometry">
            <mxRectangle width="60" height="78" as="alternateBounds" />
          </mxGeometry>
        </mxCell>
        <mxCell id="UPvEOHVc4T_nk_kfZoQp-18" value="&lt;span style=&quot;font-weight: normal;&quot;&gt;NomeEspecialidade&lt;br&gt;&lt;br&gt;DescricaoEspecialidade&lt;/span&gt;" style="shape=partialRectangle;connectable=0;fillColor=none;top=0;left=0;bottom=0;right=0;align=left;spacingLeft=6;fontStyle=5;overflow=hidden;html=1;whiteSpace=wrap;" parent="UPvEOHVc4T_nk_kfZoQp-16" vertex="1">
          <mxGeometry x="60" width="160" height="78" as="geometry">
            <mxRectangle width="160" height="78" as="alternateBounds" />
          </mxGeometry>
        </mxCell>
        <mxCell id="UPvEOHVc4T_nk_kfZoQp-19" value="" style="edgeStyle=entityRelationEdgeStyle;fontSize=12;html=1;endArrow=ERoneToMany;rounded=0;entryX=0;entryY=0.792;entryDx=0;entryDy=0;entryPerimeter=0;" parent="WIyWlLk6GJQsqaUBKTNV-1" target="bxurBG6-usje9f_txLfc-101" edge="1">
          <mxGeometry width="100" height="100" relative="1" as="geometry">
            <mxPoint x="840" y="390" as="sourcePoint" />
            <mxPoint x="940" y="290" as="targetPoint" />
          </mxGeometry>
        </mxCell>
        <mxCell id="UPvEOHVc4T_nk_kfZoQp-20" value="" style="edgeStyle=entityRelationEdgeStyle;fontSize=12;html=1;endArrow=ERoneToMany;rounded=0;entryX=-0.023;entryY=0.811;entryDx=0;entryDy=0;entryPerimeter=0;" parent="WIyWlLk6GJQsqaUBKTNV-1" target="bxurBG6-usje9f_txLfc-63" edge="1">
          <mxGeometry width="100" height="100" relative="1" as="geometry">
            <mxPoint x="840" y="390" as="sourcePoint" />
            <mxPoint x="940" y="290" as="targetPoint" />
          </mxGeometry>
        </mxCell>
        <mxCell id="UPvEOHVc4T_nk_kfZoQp-21" value="" style="edgeStyle=entityRelationEdgeStyle;fontSize=12;html=1;endArrow=ERoneToMany;rounded=0;entryX=1;entryY=0.5;entryDx=0;entryDy=0;exitX=0;exitY=0.5;exitDx=0;exitDy=0;" parent="WIyWlLk6GJQsqaUBKTNV-1" source="UPvEOHVc4T_nk_kfZoQp-7" target="bxurBG6-usje9f_txLfc-104" edge="1">
          <mxGeometry width="100" height="100" relative="1" as="geometry">
            <mxPoint x="1150" y="440" as="sourcePoint" />
            <mxPoint x="1250" y="340" as="targetPoint" />
          </mxGeometry>
        </mxCell>
        <mxCell id="UPvEOHVc4T_nk_kfZoQp-22" value="Agendamentos" style="shape=table;startSize=30;container=1;collapsible=1;childLayout=tableLayout;fixedRows=1;rowLines=0;fontStyle=1;align=center;resizeLast=1;html=1;" parent="WIyWlLk6GJQsqaUBKTNV-1" vertex="1">
          <mxGeometry x="1280" y="414" width="180" height="238" as="geometry" />
        </mxCell>
        <mxCell id="UPvEOHVc4T_nk_kfZoQp-23" value="" style="shape=tableRow;horizontal=0;startSize=0;swimlaneHead=0;swimlaneBody=0;fillColor=none;collapsible=0;dropTarget=0;points=[[0,0.5],[1,0.5]];portConstraint=eastwest;top=0;left=0;right=0;bottom=1;" parent="UPvEOHVc4T_nk_kfZoQp-22" vertex="1">
          <mxGeometry y="30" width="180" height="95" as="geometry" />
        </mxCell>
        <mxCell id="UPvEOHVc4T_nk_kfZoQp-24" value="PK&lt;br&gt;&lt;br&gt;FK1&lt;br&gt;&lt;br&gt;FK2" style="shape=partialRectangle;connectable=0;fillColor=none;top=0;left=0;bottom=0;right=0;fontStyle=1;overflow=hidden;whiteSpace=wrap;html=1;" parent="UPvEOHVc4T_nk_kfZoQp-23" vertex="1">
          <mxGeometry width="40" height="95" as="geometry">
            <mxRectangle width="40" height="95" as="alternateBounds" />
          </mxGeometry>
        </mxCell>
        <mxCell id="UPvEOHVc4T_nk_kfZoQp-25" value="IdAgendamento&lt;br&gt;&lt;br&gt;IdPaciente&lt;br&gt;&lt;br&gt;IdMedico" style="shape=partialRectangle;connectable=0;fillColor=none;top=0;left=0;bottom=0;right=0;align=left;spacingLeft=6;fontStyle=5;overflow=hidden;whiteSpace=wrap;html=1;" parent="UPvEOHVc4T_nk_kfZoQp-23" vertex="1">
          <mxGeometry x="40" width="140" height="95" as="geometry">
            <mxRectangle width="140" height="95" as="alternateBounds" />
          </mxGeometry>
        </mxCell>
        <mxCell id="UPvEOHVc4T_nk_kfZoQp-26" value="" style="shape=tableRow;horizontal=0;startSize=0;swimlaneHead=0;swimlaneBody=0;fillColor=none;collapsible=0;dropTarget=0;points=[[0,0.5],[1,0.5]];portConstraint=eastwest;top=0;left=0;right=0;bottom=0;" parent="UPvEOHVc4T_nk_kfZoQp-22" vertex="1">
          <mxGeometry y="125" width="180" height="113" as="geometry" />
        </mxCell>
        <mxCell id="UPvEOHVc4T_nk_kfZoQp-27" value="" style="shape=partialRectangle;connectable=0;fillColor=none;top=0;left=0;bottom=0;right=0;editable=1;overflow=hidden;whiteSpace=wrap;html=1;" parent="UPvEOHVc4T_nk_kfZoQp-26" vertex="1">
          <mxGeometry width="40" height="113" as="geometry">
            <mxRectangle width="40" height="113" as="alternateBounds" />
          </mxGeometry>
        </mxCell>
        <mxCell id="UPvEOHVc4T_nk_kfZoQp-28" value="StatusAgendamento&lt;br&gt;&lt;br&gt;DataHoraConsulta&lt;br&gt;&lt;br&gt;DataCriacao" style="shape=partialRectangle;connectable=0;fillColor=none;top=0;left=0;bottom=0;right=0;align=left;spacingLeft=6;overflow=hidden;whiteSpace=wrap;html=1;" parent="UPvEOHVc4T_nk_kfZoQp-26" vertex="1">
          <mxGeometry x="40" width="140" height="113" as="geometry">
            <mxRectangle width="140" height="113" as="alternateBounds" />
          </mxGeometry>
        </mxCell>
        <mxCell id="UPvEOHVc4T_nk_kfZoQp-29" value="" style="edgeStyle=entityRelationEdgeStyle;fontSize=12;html=1;endArrow=ERoneToMany;rounded=0;entryX=0;entryY=0.816;entryDx=0;entryDy=0;entryPerimeter=0;" parent="WIyWlLk6GJQsqaUBKTNV-1" target="UPvEOHVc4T_nk_kfZoQp-23" edge="1">
          <mxGeometry width="100" height="100" relative="1" as="geometry">
            <mxPoint x="1120" y="400" as="sourcePoint" />
            <mxPoint x="1220" y="300" as="targetPoint" />
          </mxGeometry>
        </mxCell>
        <mxCell id="UPvEOHVc4T_nk_kfZoQp-30" value="" style="edgeStyle=entityRelationEdgeStyle;fontSize=12;html=1;endArrow=ERoneToMany;rounded=0;entryX=0;entryY=0.5;entryDx=0;entryDy=0;exitX=1.056;exitY=0.105;exitDx=0;exitDy=0;exitPerimeter=0;" parent="WIyWlLk6GJQsqaUBKTNV-1" source="bxurBG6-usje9f_txLfc-63" target="UPvEOHVc4T_nk_kfZoQp-23" edge="1">
          <mxGeometry width="100" height="100" relative="1" as="geometry">
            <mxPoint x="1120" y="680" as="sourcePoint" />
            <mxPoint x="1220" y="580" as="targetPoint" />
          </mxGeometry>
        </mxCell>
        <mxCell id="UPvEOHVc4T_nk_kfZoQp-31" value="Consultas" style="shape=table;startSize=30;container=1;collapsible=1;childLayout=tableLayout;fixedRows=1;rowLines=0;fontStyle=1;align=center;resizeLast=1;html=1;" parent="WIyWlLk6GJQsqaUBKTNV-1" vertex="1">
          <mxGeometry x="1230" y="693.5" width="180" height="238" as="geometry" />
        </mxCell>
        <mxCell id="UPvEOHVc4T_nk_kfZoQp-32" value="" style="shape=tableRow;horizontal=0;startSize=0;swimlaneHead=0;swimlaneBody=0;fillColor=none;collapsible=0;dropTarget=0;points=[[0,0.5],[1,0.5]];portConstraint=eastwest;top=0;left=0;right=0;bottom=1;" parent="UPvEOHVc4T_nk_kfZoQp-31" vertex="1">
          <mxGeometry y="30" width="180" height="128" as="geometry" />
        </mxCell>
        <mxCell id="UPvEOHVc4T_nk_kfZoQp-33" value="PK&lt;br&gt;&lt;br&gt;FK1&lt;br&gt;&lt;br&gt;FK2&lt;br&gt;&lt;br&gt;FK3" style="shape=partialRectangle;connectable=0;fillColor=none;top=0;left=0;bottom=0;right=0;fontStyle=1;overflow=hidden;whiteSpace=wrap;html=1;" parent="UPvEOHVc4T_nk_kfZoQp-32" vertex="1">
          <mxGeometry width="40" height="128" as="geometry">
            <mxRectangle width="40" height="128" as="alternateBounds" />
          </mxGeometry>
        </mxCell>
        <mxCell id="UPvEOHVc4T_nk_kfZoQp-34" value="IdConsulta&lt;br&gt;&lt;br&gt;IdMedico&lt;br&gt;&lt;br&gt;IdPaciente&lt;br&gt;&lt;br&gt;IdAgendamento" style="shape=partialRectangle;connectable=0;fillColor=none;top=0;left=0;bottom=0;right=0;align=left;spacingLeft=6;fontStyle=5;overflow=hidden;whiteSpace=wrap;html=1;" parent="UPvEOHVc4T_nk_kfZoQp-32" vertex="1">
          <mxGeometry x="40" width="140" height="128" as="geometry">
            <mxRectangle width="140" height="128" as="alternateBounds" />
          </mxGeometry>
        </mxCell>
        <mxCell id="UPvEOHVc4T_nk_kfZoQp-35" value="" style="shape=tableRow;horizontal=0;startSize=0;swimlaneHead=0;swimlaneBody=0;fillColor=none;collapsible=0;dropTarget=0;points=[[0,0.5],[1,0.5]];portConstraint=eastwest;top=0;left=0;right=0;bottom=0;" parent="UPvEOHVc4T_nk_kfZoQp-31" vertex="1">
          <mxGeometry y="158" width="180" height="80" as="geometry" />
        </mxCell>
        <mxCell id="UPvEOHVc4T_nk_kfZoQp-36" value="" style="shape=partialRectangle;connectable=0;fillColor=none;top=0;left=0;bottom=0;right=0;editable=1;overflow=hidden;whiteSpace=wrap;html=1;" parent="UPvEOHVc4T_nk_kfZoQp-35" vertex="1">
          <mxGeometry width="40" height="80" as="geometry">
            <mxRectangle width="40" height="80" as="alternateBounds" />
          </mxGeometry>
        </mxCell>
        <mxCell id="UPvEOHVc4T_nk_kfZoQp-37" value="&amp;nbsp;DescricaoConsulta&lt;br&gt;&lt;br&gt;&amp;nbsp;DataCriacao&amp;nbsp;" style="shape=partialRectangle;connectable=0;fillColor=none;top=0;left=0;bottom=0;right=0;align=left;spacingLeft=6;overflow=hidden;whiteSpace=wrap;html=1;" parent="UPvEOHVc4T_nk_kfZoQp-35" vertex="1">
          <mxGeometry x="40" width="140" height="80" as="geometry">
            <mxRectangle width="140" height="80" as="alternateBounds" />
          </mxGeometry>
        </mxCell>
        <mxCell id="UPvEOHVc4T_nk_kfZoQp-39" value="" style="edgeStyle=entityRelationEdgeStyle;fontSize=12;html=1;endArrow=ERoneToMany;rounded=0;entryX=-0.028;entryY=0.622;entryDx=0;entryDy=0;entryPerimeter=0;exitX=1.023;exitY=0.118;exitDx=0;exitDy=0;exitPerimeter=0;" parent="WIyWlLk6GJQsqaUBKTNV-1" source="bxurBG6-usje9f_txLfc-63" target="UPvEOHVc4T_nk_kfZoQp-32" edge="1">
          <mxGeometry width="100" height="100" relative="1" as="geometry">
            <mxPoint x="1120" y="680" as="sourcePoint" />
            <mxPoint x="1220" y="580" as="targetPoint" />
            <Array as="points">
              <mxPoint x="1150" y="710" />
              <mxPoint x="1360" y="820" />
              <mxPoint x="1560" y="740" />
            </Array>
          </mxGeometry>
        </mxCell>
        <mxCell id="UPvEOHVc4T_nk_kfZoQp-40" value="" style="edgeStyle=entityRelationEdgeStyle;fontSize=12;html=1;endArrow=ERoneToMany;rounded=0;entryX=1.014;entryY=0.832;entryDx=0;entryDy=0;entryPerimeter=0;" parent="WIyWlLk6GJQsqaUBKTNV-1" target="UPvEOHVc4T_nk_kfZoQp-32" edge="1">
          <mxGeometry width="100" height="100" relative="1" as="geometry">
            <mxPoint x="1470" y="460" as="sourcePoint" />
            <mxPoint x="1574" y="820" as="targetPoint" />
          </mxGeometry>
        </mxCell>
        <mxCell id="UPvEOHVc4T_nk_kfZoQp-42" value="" style="edgeStyle=entityRelationEdgeStyle;fontSize=12;html=1;endArrow=ERoneToMany;rounded=0;entryX=0;entryY=0.363;entryDx=0;entryDy=0;entryPerimeter=0;" parent="WIyWlLk6GJQsqaUBKTNV-1" target="UPvEOHVc4T_nk_kfZoQp-32" edge="1">
          <mxGeometry width="100" height="100" relative="1" as="geometry">
            <mxPoint x="1120" y="400" as="sourcePoint" />
            <mxPoint x="1220" y="300" as="targetPoint" />
          </mxGeometry>
        </mxCell>
      </root>
    </mxGraphModel>
  </diagram>
</mxfile>
